<svg viewBox="0 0 24 24" fill="none" xmlns="http://www.w3.org/2000/svg">
  <path fill="black"
    d="M20.397 11.2546L17.5764 14.0751C17.674 13.0113 17.5374 11.9768 17.1665 10.9813L18.6402 9.47835C19.7724 8.33646 19.7724 6.49189 18.6402 5.35977C17.5081 4.22764 15.6635 4.22764 14.5217 5.35977L11.3986 8.45358C10.2664 9.61498 10.2664 11.44 11.3986 12.6014C11.9158 13.0797 11.9158 13.8702 11.3986 14.3582C10.9203 14.8462 10.1298 14.8462 9.64182 14.3582C7.54349 12.2306 7.54349 8.80493 9.64182 6.69684L12.7454 3.60303C14.873 1.46566 18.2986 1.46566 20.397 3.60303C22.5343 5.70135 22.5343 9.127 20.397 11.2546ZM14.3655 17.2958L11.2424 20.4189C9.13432 22.527 5.70867 22.527 3.58107 20.4189C1.47298 18.2913 1.47298 14.8657 3.58107 12.7576L6.43089 9.91753C6.33329 10.9813 6.46993 12.0451 6.8408 13.0406L5.36709 14.5143C4.23496 15.6562 4.23496 17.5008 5.36709 18.6329C6.49921 19.765 8.34378 19.765 9.48567 18.6329L12.5795 15.5391C13.7409 14.407 13.7409 12.5526 12.5795 11.4205C12.0915 10.9325 12.0915 10.1225 12.5795 9.6345C13.0675 9.14652 13.8775 9.14652 14.3655 9.6345C16.4638 11.7621 16.4638 15.1878 14.3655 17.2958Z">
  </path>
</svg>